<?xml version="1.0" encoding="utf-8"?>
<!-- Generator: Adobe Illustrator 23.0.1, SVG Export Plug-In . SVG Version: 6.00 Build 0)  -->
<svg version="1.1" id="Layer_1" xmlns="http://www.w3.org/2000/svg" xmlns:xlink="http://www.w3.org/1999/xlink" x="0px" y="0px"
	 viewBox="0 0 32 32" style="enable-background:new 0 0 32 32;" xml:space="preserve">
<style type="text/css">
	.st0{fill:#DC0032;}
</style>
<circle cx="16" cy="16" r="15.5"/>
<g>
	<path class="st0" d="M2.5,21.9L6.9,9.8h8.7c0.8,0,1.3,0.2,1.6,0.6c0.2,0.4,0.2,1-0.1,1.8l-1,2.7c-0.3,0.8-0.7,1.4-1.2,1.8
		c-0.5,0.4-1.1,0.6-2,0.6H6l-1.7,4.7H2.5z M14.4,11.4H8.2l-1.5,4.2h6.2c0.4,0,0.8-0.1,1-0.3c0.2-0.2,0.4-0.5,0.6-1l0.6-1.7
		c0.2-0.5,0.2-0.8,0.1-1C15.1,11.5,14.8,11.4,14.4,11.4z"/>
	<path class="st0" d="M14.6,21.9L19,9.8h10.4l-0.6,1.6h-8.6L19,14.8h5.3l-0.6,1.6h-5.3L17,20.2h8.7l-0.6,1.7H14.6z"/>
</g>
</svg>
